<?xml version="1.0" encoding="UTF-8" standalone="no"?>
<!-- Created with Inkscape (http://www.inkscape.org/) -->

<svg
   xmlns:dc="http://purl.org/dc/elements/1.1/"
   xmlns:cc="http://creativecommons.org/ns#"
   xmlns:rdf="http://www.w3.org/1999/02/22-rdf-syntax-ns#"
   xmlns:svg="http://www.w3.org/2000/svg"
   xmlns="http://www.w3.org/2000/svg"
   xmlns:xlink="http://www.w3.org/1999/xlink"
   xmlns:sodipodi="http://sodipodi.sourceforge.net/DTD/sodipodi-0.dtd"
   xmlns:inkscape="http://www.inkscape.org/namespaces/inkscape"
   width="2.5in"
   height="3.5in"
   viewBox="0 0 63.500001 88.900003"
   version="1.1"
   id="svg8"
   inkscape:version="0.92.4 (5da689c313, 2019-01-14)"
   sodipodi:docname="card_template.svg">
  <defs
     id="defs2">
    <inkscape:path-effect
       effect="construct_grid"
       id="path-effect4805"
       is_visible="true"
       nr_x="3"
       nr_y="3" />
  </defs>
  <sodipodi:namedview
     id="base"
     pagecolor="#ffffff"
     bordercolor="#666666"
     borderopacity="1.0"
     inkscape:pageopacity="0.0"
     inkscape:pageshadow="2"
     inkscape:zoom="1.979899"
     inkscape:cx="141.73231"
     inkscape:cy="174.4499"
     inkscape:document-units="mm"
     inkscape:current-layer="layer1"
     showgrid="false"
     units="in"
     inkscape:snap-bbox="true"
     inkscape:snap-bbox-edge-midpoints="true"
     inkscape:snap-page="true"
     inkscape:bbox-nodes="true"
     inkscape:snap-object-midpoints="true"
     inkscape:snap-center="false"
     inkscape:snap-intersection-paths="true"
     inkscape:snap-midpoints="false"
     inkscape:snap-global="true"
     inkscape:object-nodes="true"
     inkscape:snap-text-baseline="true"
     inkscape:bbox-paths="true"
     showguides="true"
     inkscape:guide-bbox="true"
     inkscape:window-width="1920"
     inkscape:window-height="1017"
     inkscape:window-x="-8"
     inkscape:window-y="-8"
     inkscape:window-maximized="1">
    <sodipodi:guide
       position="10.583334,84.900007"
       orientation="0,1"
       id="guide4522"
       inkscape:locked="false" />
    <sodipodi:guide
       position="16.252976,4.0000107"
       orientation="0,1"
       id="guide4524"
       inkscape:locked="false" />
    <sodipodi:guide
       position="4.0000001,29.576638"
       orientation="1,0"
       id="guide4526"
       inkscape:locked="false" />
    <sodipodi:guide
       position="59.500001,25.89137"
       orientation="1,0"
       id="guide4528"
       inkscape:locked="false" />
    <sodipodi:guide
       position="63.500001,88.900003"
       orientation="0,1"
       id="guide4881"
       inkscape:locked="false" />
    <sodipodi:guide
       position="25.925145,0"
       orientation="0,1"
       id="guide4883"
       inkscape:locked="false" />
    <sodipodi:guide
       position="0,39.689526"
       orientation="1,0"
       id="guide4885"
       inkscape:locked="false" />
    <sodipodi:guide
       position="63.500001,23.25245"
       orientation="1,0"
       id="guide4887"
       inkscape:locked="false" />
    <sodipodi:guide
       position="-2,-4.0000001"
       orientation="0,1"
       id="guide855"
       inkscape:locked="false" />
    <sodipodi:guide
       position="-4.0000001,-1.9999948"
       orientation="1,0"
       id="guide857"
       inkscape:locked="false" />
    <sodipodi:guide
       position="67.500001,0"
       orientation="1,0"
       id="guide859"
       inkscape:locked="false" />
    <sodipodi:guide
       position="65.500001,92.900008"
       orientation="0,1"
       id="guide861"
       inkscape:locked="false" />
  </sodipodi:namedview>
  <metadata
     id="metadata5">
    <rdf:RDF>
      <cc:Work
         rdf:about="">
        <dc:format>image/svg+xml</dc:format>
        <dc:type
           rdf:resource="http://purl.org/dc/dcmitype/StillImage" />
        <dc:title />
      </cc:Work>
    </rdf:RDF>
  </metadata>
  <g
     inkscape:label="Layer 1"
     inkscape:groupmode="layer"
     id="layer1"
     transform="translate(0,-208.09998)">
    <image
       sodipodi:absref="D:\Seafile\work\lab\guess_who\templates\../fotos/soninha_193_155-1.jpg"
       xlink:href="../fotos/soninha_193_155-1.jpg"
       width="65.912025"
       height="52.934536"
       preserveAspectRatio="none"
       id="image_foto"
       x="-1.7943153"
       y="210.12978" />
    <rect
       style="fill:#b376d7;fill-opacity:1;stroke-width:0.27266017"
       id="rect5773"
       width="71.5"
       height="10.46804"
       x="-4"
       y="260.98068" />
    <flowRoot
       xml:space="preserve"
       id="flowRoot4614"
       style="font-style:normal;font-variant:normal;font-weight:normal;font-stretch:normal;font-size:40px;line-height:1.25;font-family:'Fira Sans';-inkscape-font-specification:'Fira Sans';text-align:center;letter-spacing:0px;word-spacing:0px;text-anchor:middle;fill:#000000;fill-opacity:1;stroke:none"><flowRegion
         id="flowRegion4616"><rect
           id="rect4618"
           width="65.35714"
           height="60"
           x="-12.142858"
           y="179.92857" /></flowRegion><flowPara
         id="flowPara4620" /></flowRoot>    <flowRoot
       xml:space="preserve"
       id="flowRoot4622"
       style="font-style:normal;font-variant:normal;font-weight:normal;font-stretch:normal;font-size:40px;line-height:1.25;font-family:'Fira Sans';-inkscape-font-specification:'Fira Sans';text-align:center;letter-spacing:0px;word-spacing:0px;text-anchor:middle;fill:#000000;fill-opacity:1;stroke:none"><flowRegion
         id="flowRegion4624"><rect
           id="rect4626"
           width="64.10714"
           height="60.535713"
           x="-31.25"
           y="176.53572" /></flowRegion><flowPara
         id="flowPara4628" /></flowRoot>    <path
       transform="matrix(1,0,-0.49045926,0.87146412,0,0)"
       style="opacity:1;fill:#b376d7;fill-opacity:1;stroke-width:0.10806371"
       d="m 111.62944,235.75748 h 12.55946 v 22.22726 h -1.6579 z"
       id="rect4259-5-9-3-7-7"
       inkscape:connector-curvature="0"
       sodipodi:nodetypes="ccccc" />
    <rect
       style="opacity:1;fill:#d3d776;fill-opacity:1;stroke-width:0.10806371"
       id="rect4259-2-2-7-3-4-1"
       width="15.445032"
       height="8.6801748"
       x="124.1889"
       y="235.75748"
       transform="matrix(1,0,-0.49045926,0.87146412,0,0)" />
    <rect
       style="opacity:1;fill:#da8a70;fill-opacity:1;stroke-width:0.10806371"
       id="rect4259-2-7-5-7-8-5-4"
       width="15.445032"
       height="8.6801748"
       x="139.63397"
       y="235.75748"
       transform="matrix(1,0,-0.49045926,0.87146412,0,0)" />
    <rect
       style="opacity:1;fill:#4f98d5;fill-opacity:1;stroke-width:0.10806371"
       id="rect4259-2-0-4-6-6-2-8"
       width="15.445032"
       height="8.6801748"
       x="155.07901"
       y="235.75748"
       transform="matrix(1,0,-0.49045926,0.87146412,0,0)" />
    <path
       transform="matrix(1,0,-0.49045926,0.87146412,0,0)"
       style="opacity:1;fill:#4abea4;fill-opacity:1;stroke-width:0.10806371"
       d="m 170.52405,235.75748 h 12.60539 l 4.25727,8.68017 h -16.86266 z"
       id="rect4259-2-0-9-7-7-0-5-1"
       inkscape:connector-curvature="0"
       sodipodi:nodetypes="ccccc" />
    <g
       transform="matrix(0.02810927,0,0,0.02810927,47.98523,270.67786)"
       id="layer1-4">
      <path
         style="fill:#000000;fill-rule:evenodd;stroke:none;stroke-width:1px;stroke-linecap:butt;stroke-linejoin:miter;stroke-opacity:1"
         d="M 92.380859,0 V 92.380859 H 184.76172 V 0 Z M 184.76172,92.380859 V 184.76172 H 0 v 92.38086 H 277.14258 V 92.380859 Z M 9.3632812,197.18359 H 15.8125 c 1.770311,0 3.286273,0.63555 4.550781,1.90821 1.264508,1.27265 1.898438,2.80031 1.898438,4.58203 v 15.08203 c 2.276114,-3.81797 5.498999,-6.23578 9.671875,-7.25391 4.172876,-1.01812 8.157648,-0.76351 11.951172,0.76367 3.540622,1.52719 6.511497,3.94501 8.914062,7.25391 2.402565,3.30891 3.603516,7.88993 3.603516,13.74414 v 29.58985 H 43.693359 v -26.34571 c 0,-1.90898 -0.189007,-3.62515 -0.568359,-5.15234 -0.252902,-1.65445 -0.94788,-3.31039 -2.085938,-4.96485 -1.896761,-2.67257 -4.489623,-4.00781 -7.777343,-4.00781 -3.540622,0 -6.259488,1.27305 -8.15625,3.81836 -1.896762,2.54531 -2.84375,6.04375 -2.84375,10.49805 v 26.1543 H 9.3632812 Z m 140.9667988,0 h 6.82812 c 1.77031,0 3.28823,0.63555 4.55274,1.90821 1.26451,1.27265 1.89648,2.73617 1.89648,4.39062 v 8.5918 18.70703 l 16.1211,-18.70703 h 15.93359 l -18.01953,19.4707 18.20898,31.3086 H 179.91992 L 170.625,245.67188 c -1.89676,-3.43618 -3.54068,-4.89969 -4.93164,-4.39063 -1.39096,0.50906 -2.08594,1.27289 -2.08594,2.29102 v 7.0625 12.21875 H 150.33008 Z M 79.5625,210.92773 c 7.081244,0 12.391018,1.20891 15.931641,3.62696 3.667073,2.54531 5.499999,6.10984 5.499999,10.6914 v 17.3711 c 0,5.09062 -0.94699,9.10023 -2.843749,12.02734 -1.770311,2.79984 -3.920203,4.83477 -6.449219,6.10742 -2.655467,1.39992 -5.500337,2.22789 -8.535156,2.48243 -2.908369,0.38179 -5.50123,0.57226 -7.777344,0.57226 -4.552229,0 -8.535048,-1.20891 -11.949219,-3.62695 -3.414171,-2.54531 -5.121094,-6.68126 -5.121094,-12.40821 0,-5.34515 1.517916,-9.16234 4.552735,-11.45312 3.16127,-2.29078 7.144088,-3.81844 11.949218,-4.58203 0.632254,0 1.390236,-0.0641 2.275391,-0.19141 0.885156,-0.25453 1.897099,-0.445 3.035156,-0.57226 5.563835,-0.7636 8.345703,-2.41758 8.345703,-4.96289 0,-1.90899 -1.011943,-3.1179 -3.035156,-3.62696 -1.896762,-0.63633 -3.666686,-0.95508 -5.310547,-0.95508 -1.770311,0 -3.351228,0.25461 -4.742187,0.76368 -1.390959,0.50906 -2.402902,1.46336 -3.035156,2.86328 H 59.646484 c 0.505804,-3.94523 2.275728,-7.19102 5.310547,-9.73633 3.414172,-2.92711 8.282929,-4.39063 14.605469,-4.39063 z m 45.73047,0 c 7.58705,0 13.46579,2.29149 17.63867,6.87305 2.27611,2.79984 3.92003,6.04563 4.93164,9.73633 h -13.27734 c -0.63226,-1.27266 -1.26423,-2.22695 -1.89649,-2.86328 C 131.04559,222.89211 128.70669,222 125.67188,222 c -2.78192,0 -5.05782,0.89211 -6.82813,2.67383 -2.27611,2.54531 -3.41406,6.74344 -3.41406,12.59765 0,5.85422 1.13795,9.99212 3.41406,12.41016 1.64386,2.03625 4.10876,3.05274 7.39648,3.05274 2.14967,0 3.98455,-0.44508 5.50196,-1.33594 0.37935,-0.12727 0.69436,-0.31774 0.94726,-0.57227 l 1.13867,-1.14453 c 0.25291,-0.3818 0.75888,-0.89102 1.51758,-1.52734 0.75871,-0.63633 1.89666,-0.95508 3.41407,-0.95508 h 9.48242 c -1.39096,5.34515 -4.04487,9.41695 -7.96485,12.2168 -3.91997,2.9271 -8.85173,4.39062 -14.79492,4.39062 -7.20769,0 -12.83443,-2.35367 -16.88086,-7.0625 -4.04642,-4.58156 -6.07031,-11.13532 -6.07031,-19.66211 0,-8.14499 1.95893,-14.50828 5.87891,-19.08984 4.04642,-4.70883 9.67511,-7.06446 16.88281,-7.06446 z m 88.24023,0 c 7.58705,0 13.4658,2.29149 17.63868,6.87305 4.04642,4.70883 6.07031,11.26258 6.07031,19.66211 v 1.33594 0.76367 c 0,0.63633 -0.063,1.08336 -0.18946,1.33789 h -32.81445 c 0.12645,3.94523 1.07539,6.87227 2.8457,8.78125 1.64386,2.03625 4.10877,3.05274 7.39649,3.05274 2.14966,0 3.98454,-0.44508 5.50195,-1.33594 0.37935,-0.12727 0.69437,-0.31774 0.94727,-0.57227 l 1.13867,-1.14453 c 0.12645,-0.3818 0.56942,-0.89102 1.32812,-1.52734 0.88516,-0.63633 2.08611,-0.95508 3.60352,-0.95508 h 9.48242 c -1.39096,5.34515 -4.04487,9.41695 -7.96484,12.2168 -3.91998,2.9271 -8.85174,4.39062 -14.79492,4.39062 -7.2077,0 -12.83444,-2.35367 -16.88086,-7.0625 -4.04643,-4.58156 -6.07032,-11.13532 -6.07032,-19.66211 0,-8.14499 1.96089,-14.50828 5.88086,-19.08984 4.04643,-4.70883 9.67317,-7.06446 16.88086,-7.06446 z m 52.34961,1.14649 h 0.94922 0.94727 v 13.55273 h -4.36133 c -3.66707,0 -6.38594,0.89211 -8.15625,2.67383 -1.77031,1.78172 -2.65625,4.58047 -2.65625,8.39844 v 26.1543 h -13.27735 v -24.62696 c 0,-4.96335 0.69498,-9.0993 2.08594,-12.4082 1.51741,-3.43617 3.5413,-6.17274 6.07032,-8.20898 2.40256,-1.90899 5.18443,-3.30836 8.3457,-4.19922 3.28772,-0.89086 6.63856,-1.33594 10.05273,-1.33594 z M 213.91211,222 c -2.78192,0 -5.05781,0.89211 -6.82813,2.67383 -1.77031,1.78172 -2.71925,4.32586 -2.8457,7.63476 h 19.34766 c -0.2529,-3.43617 -1.13884,-5.98031 -2.65625,-7.63476 C 219.28583,222.89211 216.94693,222 213.91211,222 Z M 88.666016,237.27148 c -1.770311,0.89086 -4.235215,1.71883 -7.396485,2.48243 l -4.363281,0.95507 c -2.276114,0.63633 -3.920034,1.46235 -4.931641,2.48047 -0.885155,1.39992 -1.328125,2.80125 -1.328125,4.20117 0,1.90899 0.568975,3.43469 1.707032,4.58008 1.138057,1.01813 2.781977,1.52735 4.93164,1.52735 3.540622,0 6.322491,-1.01649 8.345703,-3.05274 2.023213,-2.03625 3.035157,-4.83695 3.035157,-8.40039 z"
         transform="translate(121.36256,507.99735)"
         id="path4811"
         inkscape:connector-curvature="0" />
      <g
         transform="scale(0.99679382,1.0032165)"
         style="font-style:normal;font-variant:normal;font-weight:bold;font-stretch:normal;font-size:97.42657471px;line-height:80.00000119%;font-family:Harabara;-inkscape-font-specification:'Harabara Bold';letter-spacing:0px;word-spacing:0px;fill:#000000;fill-opacity:1;stroke:none;stroke-width:1px;stroke-linecap:butt;stroke-linejoin:miter;stroke-opacity:1"
         id="text5056">
        <path
           d="m 131.14593,611.38612 h 6.85031 q 2.66401,0 4.56687,1.90287 1.90286,1.71257 1.90286,4.37658 v 59.17903 h -13.32004 z"
           style="letter-spacing:0.46788204px"
           id="path5857"
           inkscape:connector-curvature="0" />
        <path
           d="m 176.52138,651.34624 q -2.66401,1.33201 -7.42117,2.47372 -4.37658,0.95144 -4.37658,0.95144 -3.42516,0.95143 -4.94745,2.47372 -1.332,2.09315 -1.332,4.1863 0,2.85429 1.71258,4.56687 1.71257,1.52229 4.94744,1.52229 5.32801,0 8.3726,-3.04458 3.04458,-3.04458 3.04458,-8.3726 z m 3.04458,23.40522 q -3.99602,2.09314 -8.56289,2.47372 -4.37658,0.57086 -7.80173,0.57086 -6.85031,0 -11.98804,-3.61544 -5.13773,-3.80573 -5.13773,-12.36861 0,-7.99203 4.56687,-11.41718 4.75716,-3.42515 11.98804,-4.56687 0.95143,0 2.28343,-0.19029 1.33201,-0.38057 3.04458,-0.57085 8.3726,-1.14172 8.3726,-4.94745 0,-2.85429 -3.04458,-3.61544 -2.8543,-0.95143 -5.32802,-0.95143 -2.664,0 -4.75715,0.76115 -2.09315,0.76114 -3.04458,2.85429 h -12.74918 q 0.76114,-5.89887 5.32801,-9.7046 5.13773,-4.37658 14.65204,-4.37658 10.65604,0 15.98405,3.61544 5.5183,3.80572 5.5183,10.65603 v 17.31605 q 0,7.61145 -2.85429,11.98803 -2.66401,4.1863 -6.46973,6.08917 z"
           id="path5859"
           inkscape:connector-curvature="0" />
        <path
           d="m 203.73231,617.66557 v 15.2229 q 2.09315,-3.61544 6.08916,-5.89887 3.42516,-1.90286 8.3726,-1.90286 8.94346,0 14.65204,7.42116 5.70859,7.42117 5.70859,19.21892 0,11.79774 -5.70859,19.21891 -2.85429,3.61544 -7.80173,5.32802 -4.75716,1.52229 -9.51432,1.52229 -9.13374,0 -16.93548,-4.75716 -7.80173,-4.75716 -7.80173,-18.26748 v -43.57556 h 6.46973 q 2.66401,0 4.56687,1.90286 1.90286,1.90286 1.90286,4.56687 z m 21.69264,33.49039 q 0,-6.85031 -2.85429,-10.65603 -2.8543,-3.99602 -7.80174,-3.99602 -5.32802,0 -8.18231,3.80573 -2.8543,3.99601 -2.8543,10.84632 0,7.99202 2.66401,11.60746 2.8543,3.99601 7.99203,3.99601 5.32801,0 8.18231,-3.99601 2.85429,-3.99601 2.85429,-11.60746 z"
           id="path5861"
           inkscape:connector-curvature="0" />
      </g>
    </g>
    <image
       sodipodi:absref="D:\Seafile\work\lab\guess_who\templates\../comissoes/Finanças_Black-125x125.png"
       xlink:href="../comissoes/Finanças_Black-125x125.png"
       width="8.5640564"
       height="8.5640564"
       preserveAspectRatio="none"
       id="image_comiss4"
       x="3.9999981"
       y="274.63272" />
    <image
       sodipodi:absref="D:\Seafile\work\lab\guess_who\templates\../comissoes/Justiça_Black-125x125.png"
       xlink:href="../comissoes/Justiça_Black-125x125.png"
       width="8.5640564"
       height="8.5640564"
       preserveAspectRatio="none"
       id="image_comiss5"
       x="13.803194"
       y="274.63272" />
    <image
       sodipodi:absref="D:\Seafile\work\lab\guess_who\templates\../comissoes/PoliticaUrbana_Black-125x125.png"
       xlink:href="../comissoes/PoliticaUrbana_Black-125x125.png"
       width="8.5640564"
       height="8.5640564"
       preserveAspectRatio="none"
       id="image_comiss6"
       x="23.606392"
       y="274.63272" />
    <image
       sodipodi:absref="D:\Seafile\work\lab\guess_who\templates\../partidos/pps.png"
       xlink:href="../partidos/pps.png"
       width="10.583333"
       height="10.583333"
       preserveAspectRatio="none"
       id="image_partido"
       x="48.916668"
       y="260.86539" />
    <image
       sodipodi:absref="D:\Seafile\work\lab\guess_who\templates\../comissoes/Justiça_Black-125x125.png"
       xlink:href="../comissoes/Justiça_Black-125x125.png"
       inkscape:label="#image_comiss1"
       y="284.43591"
       x="4"
       id="image_comiss1"
       preserveAspectRatio="none"
       height="8.5640564"
       width="8.5640564" />
    <image
       sodipodi:absref="D:\Seafile\work\lab\guess_who\templates\../comissoes/mesa_diretora.png"
       xlink:href="../comissoes/mesa_diretora.png"
       width="8.5640564"
       height="8.5640564"
       preserveAspectRatio="none"
       id="image_comiss2"
       x="13.803196"
       y="284.43591" />
    <path
       style="fill:none;stroke:#000000;stroke-width:0.26458332px;stroke-linecap:butt;stroke-linejoin:miter;stroke-opacity:1"
       d="m -3.9999999,296.99998 c 0.6528802,0 2.3109265,0 2.5634262,0"
       id="path863"
       inkscape:connector-curvature="0"
       sodipodi:nodetypes="cc" />
    <path
       style="fill:none;stroke:#000000;stroke-width:0.26458332px;stroke-linecap:butt;stroke-linejoin:miter;stroke-opacity:1"
       d="m 64.936572,296.99998 c 0.652881,0 2.310927,0 2.563427,0"
       id="path863-0"
       inkscape:connector-curvature="0"
       sodipodi:nodetypes="cc" />
    <path
       style="fill:none;stroke:#000000;stroke-width:0.26458332px;stroke-linecap:butt;stroke-linejoin:miter;stroke-opacity:1"
       d="m 63.499999,298.43656 c 0,0.65288 0,2.31092 0,2.56342"
       id="path863-0-7"
       inkscape:connector-curvature="0"
       sodipodi:nodetypes="cc" />
    <path
       style="fill:none;stroke:#000000;stroke-width:0.26458332px;stroke-linecap:butt;stroke-linejoin:miter;stroke-opacity:1"
       d="m 0,298.43656 c 0,0.65288 0,2.31092 0,2.56342"
       id="path863-0-7-5"
       inkscape:connector-curvature="0"
       sodipodi:nodetypes="cc" />
    <path
       style="fill:none;stroke:#000000;stroke-width:0.26458332px;stroke-linecap:butt;stroke-linejoin:miter;stroke-opacity:1"
       d="m 67.500001,208.09998 c -0.65288,0 -2.310927,0 -2.563426,0"
       id="path863-6"
       inkscape:connector-curvature="0"
       sodipodi:nodetypes="cc" />
    <path
       style="fill:none;stroke:#000000;stroke-width:0.26458332px;stroke-linecap:butt;stroke-linejoin:miter;stroke-opacity:1"
       d="m -1.436574,208.09998 c -0.65288,0 -2.310926,0 -2.563426,0"
       id="path863-0-3"
       inkscape:connector-curvature="0"
       sodipodi:nodetypes="cc" />
    <path
       style="fill:none;stroke:#000000;stroke-width:0.26458332px;stroke-linecap:butt;stroke-linejoin:miter;stroke-opacity:1"
       d="m -9.1013616e-8,206.6634 c 0,-0.65288 0,-2.31092 0,-2.56342"
       id="path863-0-7-8"
       inkscape:connector-curvature="0"
       sodipodi:nodetypes="cc" />
    <path
       style="fill:none;stroke:#000000;stroke-width:0.26458332px;stroke-linecap:butt;stroke-linejoin:miter;stroke-opacity:1"
       d="m 63.500001,206.6634 c 0,-0.65288 0,-2.31092 0,-2.56342"
       id="path863-0-7-5-6"
       inkscape:connector-curvature="0"
       sodipodi:nodetypes="cc" />
    <image
       sodipodi:absref="D:\Seafile\work\lab\guess_who\templates\../comissoes/Justiça_Black-125x125.png"
       xlink:href="../comissoes/Justiça_Black-125x125.png"
       y="284.43591"
       x="23.606392"
       id="image_comiss3"
       preserveAspectRatio="none"
       height="8.5640564"
       width="8.5640564"
       inkscape:label="#image_comiss3" />
    <text
       xml:space="preserve"
       style="font-style:normal;font-variant:normal;font-weight:normal;font-stretch:normal;font-size:7.05555534px;line-height:1.25;font-family:'Fira Sans';-inkscape-font-specification:'Fira Sans';text-align:center;letter-spacing:0px;word-spacing:0px;text-anchor:middle;fill:#000000;fill-opacity:1;stroke:none;stroke-width:0.26458332"
       x="26.458332"
       y="267.39389"
       id="texto_nome"><tspan
         sodipodi:role="line"
         id="tspan954"
         x="26.458332"
         y="267.39389"
         style="font-style:normal;font-variant:normal;font-weight:bold;font-stretch:normal;font-size:4.23333311px;font-family:'Fira Sans';-inkscape-font-specification:'Fira Sans Bold';stroke-width:0.26458332">content_nome</tspan></text>
    <text
       xml:space="preserve"
       style="font-style:normal;font-variant:normal;font-weight:normal;font-stretch:normal;font-size:3.52777767px;line-height:1.25;font-family:'Fira Sans';-inkscape-font-specification:'Fira Sans';text-align:end;letter-spacing:0px;word-spacing:0px;text-anchor:end;fill:#000000;fill-opacity:1;stroke:none;stroke-width:0.26458332"
       x="58.886642"
       y="277.62292"
       id="texto_sala_caption"><tspan
         sodipodi:role="line"
         id="tspan1710"
         x="58.886642"
         y="277.62292"
         style="font-weight:bold;font-size:3.52777767px;text-align:end;text-anchor:end;stroke-width:0.26458332">Sala:</tspan></text>
    <text
       xml:space="preserve"
       style="font-style:normal;font-variant:normal;font-weight:normal;font-stretch:normal;font-size:3.52777767px;line-height:1.25;font-family:'Fira Sans';-inkscape-font-specification:'Fira Sans';text-align:end;letter-spacing:0px;word-spacing:0px;text-anchor:end;fill:#000000;fill-opacity:1;stroke:none;stroke-width:0.26458332"
       x="58.886642"
       y="280.88965"
       id="texto_sala"><tspan
         sodipodi:role="line"
         id="tspan1710-3"
         x="58.886642"
         y="280.88965"
         style="font-weight:normal;font-size:3.52777767px;text-align:end;text-anchor:end;stroke-width:0.26458332">1234</tspan></text>
  </g>
</svg>
